<?xml version="1.0" encoding="utf-8"?>
<!-- Generator: Adobe Illustrator 16.0.0, SVG Export Plug-In . SVG Version: 6.00 Build 0)  -->
<!DOCTYPE svg PUBLIC "-//W3C//DTD SVG 1.1//EN" "http://www.w3.org/Graphics/SVG/1.1/DTD/svg11.dtd">
<svg version="1.1" id="Layer_2" xmlns="http://www.w3.org/2000/svg" xmlns:xlink="http://www.w3.org/1999/xlink" x="0px" y="0px"
	 width="2800px" height="2800px" viewBox="0 0 2800 2800" enable-background="new 0 0 2800 2800" xml:space="preserve">
<g>
	<defs>
		<rect id="SVGID_1_" width="2800" height="2800"/>
	</defs>
	<clipPath id="SVGID_2_">
		<use xlink:href="#SVGID_1_"  overflow="visible"/>
	</clipPath>
	<rect x="-40.019" y="94.13" clip-path="url(#SVGID_2_)" fill="#FFFFFF" width="2865.719" height="2865.713"/>
	<g clip-path="url(#SVGID_2_)">
		<g>
			
				<rect x="1736.844" y="2118.73" transform="matrix(-0.714 -0.7001 0.7001 -0.714 1508.7747 4857.8638)" fill="#58595B" width="19.446" height="4.094"/>
		</g>
		<g>
			<path fill="#58595B" d="M1219.034,2041.408h3.212v4.095h-2.449l-23.647,20.456l-2.679-3.096l24.225-20.955
				C1218.067,2041.587,1218.543,2041.408,1219.034,2041.408z M1270.064,2041.408h35.242v4.095h-35.242V2041.408z M1353.125,2041.408
				h35.242v4.095h-35.242V2041.408z M1436.187,2041.408h35.24v4.095h-35.24V2041.408z M1519.246,2041.408h35.243v4.095h-35.243
				V2041.408z M1602.308,2041.408h35.241v4.095h-35.241V2041.408z M1681.754,2054.352l25.162,24.675l-2.866,2.923l-25.162-24.676
				L1681.754,2054.352z M1157.304,2094.147l2.679,3.097l-26.653,23.056l-2.678-3.097L1157.304,2094.147z M1094.485,2148.486
				l2.679,3.098l-26.653,23.056l-2.679-3.097L1094.485,2148.486z"/>
		</g>
		<g>
			
				<rect x="1023.605" y="2201.012" transform="matrix(-0.6542 -0.7563 0.7563 -0.6542 24.6711 4432.75)" fill="#58595B" width="4.094" height="19.446"/>
		</g>
	</g>
	<g clip-path="url(#SVGID_2_)">
		<path fill="#FBB040" d="M-261.69,914.558c7.086,0,14.176,2.694,19.6,8.084l2013.738,2000.936
			c10.896,10.826,10.952,28.435,0.127,39.328s-28.431,10.951-39.327,0.124L-281.292,962.093
			c-10.896-10.824-10.95-28.432-0.127-39.327C-275.982,917.295-268.837,914.558-261.69,914.558z"/>
	</g>
	<g clip-path="url(#SVGID_2_)">
		<g>
			<path fill="#FFFFFF" d="M1021.796,2240.609c6.371,6.324,16.662,6.289,22.986-0.08c6.327-6.37,6.29-16.662-0.077-22.987
				l-0.791-0.785c-3.172-3.147-7.313-4.721-11.454-4.721c-4.179,0-8.357,1.603-11.533,4.802c-6.327,6.369-6.291,16.661,0.079,22.986
				L1021.796,2240.609z"/>
			<path fill="#FFFFFF" d="M949.874,2169.145c6.367,6.326,16.659,6.295,22.987-0.072c6.328-6.368,6.295-16.659-0.073-22.988
				l-0.791-0.785c-3.17-3.15-7.314-4.725-11.457-4.725c-4.177,0-8.353,1.601-11.529,4.797c-6.329,6.368-6.297,16.659,0.072,22.988
				L949.874,2169.145z"/>
			<path fill="#FFFFFF" d="M1093.712,2312.067c6.366,6.327,16.658,6.296,22.988-0.072c6.327-6.367,6.295-16.659-0.073-22.986
				l-0.791-0.786c-3.169-3.15-7.314-4.725-11.458-4.725c-4.176,0-8.353,1.6-11.529,4.796c-6.329,6.368-6.296,16.659,0.071,22.987
				L1093.712,2312.067z"/>
			<path fill="#FFFFFF" d="M1597.145,2812.301c6.369,6.329,16.661,6.296,22.987-0.071c6.328-6.368,6.295-16.659-0.071-22.987
				l-0.792-0.786c-3.171-3.15-7.312-4.724-11.456-4.724c-4.177,0-8.353,1.6-11.53,4.797c-6.327,6.367-6.295,16.658,0.072,22.986
				L1597.145,2812.301z"/>
			<path fill="#FFFFFF" d="M662.2,1883.299c6.372,6.325,16.662,6.29,22.989-0.079c6.325-6.37,6.288-16.662-0.081-22.987
				l-0.792-0.785c-3.17-3.148-7.312-4.721-11.452-4.721c-4.179,0-8.357,1.602-11.535,4.801c-6.326,6.369-6.29,16.661,0.08,22.986
				L662.2,1883.299z"/>
			<path fill="#FFFFFF" d="M1165.631,2383.529c6.366,6.327,16.658,6.296,22.987-0.071c6.327-6.368,6.295-16.659-0.074-22.987
				l-0.789-0.786c-3.17-3.151-7.315-4.726-11.458-4.726c-4.175,0-8.353,1.602-11.529,4.799c-6.328,6.367-6.296,16.658,0.071,22.986
				L1165.631,2383.529z"/>
			<path fill="#FFFFFF" d="M1525.23,2740.843c6.368,6.325,16.66,6.29,22.986-0.079c6.325-6.371,6.29-16.661-0.08-22.988
				l-0.791-0.784c-3.17-3.148-7.312-4.72-11.453-4.72c-4.179,0-8.355,1.601-11.534,4.8c-6.324,6.37-6.289,16.661,0.08,22.986
				L1525.23,2740.843z"/>
			<path fill="#FFFFFF" d="M1453.312,2669.382c6.37,6.325,16.661,6.29,22.986-0.081c6.326-6.369,6.289-16.66-0.078-22.986
				l-0.791-0.785c-3.171-3.148-7.312-4.722-11.453-4.722c-4.18,0-8.357,1.602-11.534,4.802c-6.326,6.37-6.291,16.661,0.079,22.986
				L1453.312,2669.382z"/>
			<path fill="#FFFFFF" d="M734.12,1954.761c6.372,6.325,16.661,6.29,22.988-0.08c6.326-6.37,6.289-16.661-0.08-22.986l-0.791-0.785
				c-3.171-3.148-7.313-4.721-11.454-4.721c-4.178,0-8.356,1.602-11.535,4.801c-6.325,6.369-6.289,16.66,0.08,22.987
				L734.12,1954.761z"/>
			<path fill="#FFFFFF" d="M14.929,1240.143c6.371,6.329,16.661,6.292,22.987-0.08c6.326-6.368,6.29-16.66-0.079-22.985
				l-0.791-0.786c-3.172-3.149-7.314-4.72-11.455-4.72c-4.178,0-8.355,1.601-11.534,4.799c-6.325,6.371-6.289,16.663,0.08,22.987
				L14.929,1240.143z"/>
			<path fill="#FFFFFF" d="M86.848,1311.608c6.371,6.324,16.661,6.289,22.987-0.08c6.325-6.371,6.29-16.663-0.079-22.988
				l-0.792-0.785c-3.169-3.149-7.312-4.721-11.453-4.721c-4.179,0-8.355,1.602-11.534,4.8c-6.326,6.371-6.289,16.662,0.08,22.988
				L86.848,1311.608z"/>
			<path fill="#FFFFFF" d="M590.282,1811.837c6.371,6.325,16.661,6.29,22.987-0.079c6.326-6.37,6.29-16.663-0.08-22.988l-0.79-0.784
				c-3.172-3.149-7.313-4.721-11.455-4.721c-4.178,0-8.354,1.602-11.534,4.8c-6.326,6.369-6.288,16.661,0.08,22.987
				L590.282,1811.837z"/>
			<path fill="#FFFFFF" d="M158.767,1383.068c6.372,6.327,16.661,6.291,22.987-0.08c6.326-6.37,6.29-16.66-0.079-22.987l-0.79-0.785
				c-3.172-3.148-7.313-4.72-11.456-4.72c-4.178,0-8.354,1.602-11.533,4.799c-6.326,6.372-6.289,16.664,0.08,22.988
				L158.767,1383.068z"/>
			<path fill="#FFFFFF" d="M518.362,1740.375c6.371,6.325,16.662,6.29,22.989-0.08c6.324-6.369,6.288-16.66-0.081-22.987
				l-0.792-0.785c-3.17-3.148-7.311-4.72-11.452-4.72c-4.18,0-8.356,1.601-11.536,4.8c-6.326,6.37-6.289,16.662,0.08,22.986
				L518.362,1740.375z"/>
			<path fill="#FFFFFF" d="M230.686,1454.526c6.372,6.326,16.659,6.288,22.988-0.08c6.326-6.37,6.29-16.661-0.079-22.985
				l-0.792-0.785c-3.169-3.15-7.31-4.722-11.453-4.722c-4.178,0-8.356,1.601-11.533,4.8c-6.326,6.37-6.289,16.662,0.08,22.987
				L230.686,1454.526z"/>
			<path fill="#FFFFFF" d="M446.444,1668.912c6.371,6.326,16.661,6.291,22.988-0.079c6.324-6.37,6.288-16.662-0.081-22.987
				l-0.79-0.785c-3.171-3.148-7.313-4.721-11.453-4.721c-4.18,0-8.357,1.601-11.535,4.801c-6.325,6.369-6.289,16.662,0.08,22.987
				L446.444,1668.912z"/>
		</g>
	</g>
	<g clip-path="url(#SVGID_2_)">
		<polygon fill="#2B3990" points="1227.758,1548.359 1535.159,1810.297 1535.159,1920.459 1506.503,1920.459 1506.503,1823.528 
			1209.172,1570.172 		"/>
	</g>
	<g clip-path="url(#SVGID_2_)">
		<polygon fill="#2B3990" points="1188.593,307.921 1473.312,517.218 1473.312,951.739 1684.204,1114.531 2438.86,1114.531 
			2686.708,1352.982 2686.708,1581.545 2658.051,1581.545 2658.051,1365.178 2427.313,1143.188 1674.43,1143.188 1444.655,965.819 
			1444.655,531.718 1171.619,331.011 		"/>
	</g>
	<g clip-path="url(#SVGID_2_)">
		<g>
			<path fill="#58595B" d="M-409.852,1504.782h35.409v4.094h-35.409V1504.782z M-326.347,1504.782h35.41v4.094h-35.41V1504.782z
				 M-242.841,1504.782h35.408v4.094h-35.408V1504.782z M-159.336,1504.782h35.409v4.094h-35.409V1504.782z M-75.831,1504.782
				h35.408v4.094h-35.408V1504.782z M7.674,1504.782h35.409v4.094H7.674V1504.782z M91.178,1504.782h35.409v4.094H91.178V1504.782z
				 M174.685,1504.782h35.406v4.094h-35.406V1504.782z M258.189,1504.782h35.408v4.094h-35.408V1504.782z M341.694,1504.782h35.409
				v4.094h-35.409V1504.782z M425.199,1504.782h35.408v4.094h-35.408V1504.782z M508.704,1504.782h35.409v4.094h-35.409V1504.782z
				 M592.209,1504.782h35.408v4.094h-35.408V1504.782z M675.715,1504.782h35.409v4.094h-35.409V1504.782z M759.219,1504.782h35.409
				v4.094h-35.409V1504.782z M842.725,1504.782h35.407v4.094h-35.407V1504.782z M926.229,1504.782h35.409v4.094h-35.409V1504.782z
				 M1009.735,1504.782h35.408v4.094h-35.408V1504.782z M1093.239,1504.782h35.409v4.094h-35.409V1504.782z"/>
		</g>
		<g>
			<path fill="#58595B" d="M1204.595,1492.769l2.977,2.811l-11.94,12.654c-0.387,0.411-0.926,0.643-1.488,0.643h-17.399v-4.094
				h16.516L1204.595,1492.769z"/>
		</g>
		<g>
			<path fill="#58595B" d="M1301.124,1390.471l2.977,2.809l-20.908,22.158l-2.978-2.809L1301.124,1390.471z M1252.859,1441.618
				l2.978,2.81l-20.909,22.159l-2.978-2.81L1252.859,1441.618z"/>
		</g>
		<g>
			<path fill="#58595B" d="M1341.908,1348.183h17.399v4.093h-16.516l-11.334,12.013l-2.979-2.81l11.94-12.654
				C1340.807,1348.413,1341.346,1348.183,1341.908,1348.183z"/>
		</g>
		<g>
			<path fill="#58595B" d="M1406.868,1348.183h35.086v4.093h-35.086V1348.183z M1489.515,1348.183h35.087v4.093h-35.087V1348.183z
				 M1572.161,1348.183h35.088v4.093h-35.088V1348.183z M1654.809,1348.183h35.087v4.093h-35.087V1348.183z M1737.455,1348.183
				h35.087v4.093h-35.087V1348.183z M1820.103,1348.183h35.086v4.093h-35.086V1348.183z M1902.749,1348.183h35.087v4.093h-35.087
				V1348.183z M1985.396,1348.183h8.012c0.536,0,1.051,0.208,1.433,0.584l19.331,18.958l-2.866,2.923l-18.733-18.373h-7.176
				V1348.183z M2048.127,1401.026l25.051,24.562l-2.866,2.922l-25.051-24.562L2048.127,1401.026z M2107.136,1458.89l25.049,24.567
				l-2.867,2.922l-25.05-24.565L2107.136,1458.89z M2166.142,1516.758l25.049,24.566l-2.866,2.923l-25.049-24.565L2166.142,1516.758
				z M2225.147,1574.627l25.05,24.566l-2.866,2.922l-25.049-24.566L2225.147,1574.627z M2284.154,1632.494l25.052,24.567
				l-2.868,2.923l-25.05-24.568L2284.154,1632.494z M2349.423,1670.94h35.086v4.095h-35.086V1670.94z M2432.07,1670.94h35.085v4.095
				h-35.085V1670.94z M2514.716,1670.94h35.087v4.095h-35.087V1670.94z"/>
		</g>
		<g>
			<rect x="2597.363" y="1670.94" fill="#58595B" width="19.446" height="4.095"/>
		</g>
	</g>
	<g clip-path="url(#SVGID_2_)">
		<polygon fill="#2B3990" points="2600.434,1524.716 2629.091,1524.716 2629.091,2071.601 2085.214,2467.022 1269.574,2467.022 
			1269.574,2438.366 2075.897,2438.366 2600.434,2057.005 		"/>
	</g>
	<g clip-path="url(#SVGID_2_)">
		<path fill="#39B54A" d="M351.337-106.562c15.359,0,27.81,12.449,27.81,27.808V2153.42l290.391,284.345h154.868
			c15.356,0,27.808,12.449,27.808,27.808c0,15.359-12.452,27.809-27.808,27.809H658.189c-7.274,0-14.258-2.85-19.455-7.938
			l-306.854-300.46c-5.34-5.232-8.351-12.395-8.351-19.87V-78.754C323.53-94.113,335.979-106.562,351.337-106.562z"/>
	</g>
	<g clip-path="url(#SVGID_2_)">
		<path fill="#BE1E2D" d="M1180.117,1771.188c6.651-0.001,13.324,2.372,18.647,7.188l126.302,114.276h845.923
			c7.375,0,14.447,2.929,19.662,8.144l274.891,274.891c5.217,5.215,8.146,12.289,8.146,19.662v882.374l124.35,108.807l64.711-64.71
			c5.291-5.292,12.467-8.253,19.977-8.144c7.484,0.084,14.617,3.182,19.789,8.592l415.531,434.711
			c10.611,11.103,10.215,28.704-0.887,39.316c-11.1,10.612-28.703,10.218-39.318-0.886l-395.877-414.15l-62.994,62.994
			c-10.351,10.351-26.958,10.904-37.976,1.266l-153.427-134.249c-6.035-5.28-9.497-12.909-9.497-20.929l0.001-883.473
			l-258.602-258.599h-845.113c-6.895,0-13.545-2.562-18.658-7.189l-134.25-121.462c-11.389-10.304-12.267-27.889-1.963-39.276
			C1164.974,1774.272,1172.529,1771.188,1180.117,1771.188z"/>
	</g>
	<g clip-path="url(#SVGID_2_)">
		<path fill="#00A79D" d="M1752.048-106.562c15.358,0,27.81,12.449,27.81,27.808v3396.038c0,15.357-12.451,27.808-27.81,27.808
			s-27.81-12.45-27.81-27.808l0.001-3396.038C1724.239-94.113,1736.69-106.562,1752.048-106.562z"/>
	</g>
	<g clip-path="url(#SVGID_2_)">
		<path fill="#6D6E71" d="M1273.754,2479.828h-23.292l105.072,107.015c5.229,5.327,12.378,8.327,19.842,8.327h1162.705
			c6.958,0,13.663-2.608,18.792-7.31l375.592-344.295h347.18c15.359,0,27.809-12.449,27.809-27.808
			c0-15.357-12.449-27.81-27.809-27.81h-357.996c-6.958,0-13.662,2.608-18.79,7.311l-375.593,344.294H1387.046l-113.292-115.39
			V2479.828z"/>
	</g>
	<g clip-path="url(#SVGID_2_)">
		<path fill="#27AAE1" d="M1359.105,1374.839h620.101c7.375,0,14.448,2.93,19.664,8.145l313.248,313.243
			c10.858,10.86,10.858,28.467,0,39.326c-10.861,10.862-28.469,10.862-39.328,0l-305.103-305.103H1371.51l-132.354,147.396
			c-5.276,5.873-12.797,9.23-20.691,9.23H-490.084l-324.375,308.774c-5.167,4.922-12.034,7.668-19.17,7.668h-536.997
			c-15.357,0-27.809-12.452-27.809-27.809c0-15.359,12.451-27.811,27.809-27.811h525.877l324.371-308.774
			c5.168-4.924,12.034-7.667,19.173-7.667h1707.267l132.354-147.391C1343.689,1378.196,1351.211,1374.839,1359.105,1374.839z"/>
	</g>
	<g clip-path="url(#SVGID_2_)">
		<path fill="#DA1C5C" d="M1107.268,564.435h652.072c7.181,0,14.08,2.774,19.258,7.747l159.822,153.424
			c5.463,5.244,8.55,12.49,8.55,20.061v84.262l925.066,912.378c10.935,10.785,11.057,28.394,0.272,39.327
			c-10.785,10.937-28.393,11.057-39.327,0.271l-933.347-920.546c-5.298-5.226-8.282-12.358-8.282-19.799v-84.039l-143.2-137.471
			h-629.296l-746.192,752.501c-10.816,10.911-28.425,10.979-39.328,0.168c-10.905-10.811-10.979-28.412-0.166-39.315
			l754.349-760.743C1092.745,567.397,1099.854,564.435,1107.268,564.435z"/>
	</g>
	<g clip-path="url(#SVGID_2_)">
		<path fill="#F15A29" d="M694.254,285.302h1444.772c15.357,0,27.809,12.451,27.809,27.811c0,15.358-12.451,27.808-27.809,27.808
			H705.127l-75.118,69.337c-5.135,4.743-11.871,7.375-18.861,7.375h-990.89c-15.359,0-27.81-12.45-27.81-27.809
			c0-15.357,12.451-27.809,27.81-27.809h980.02l75.117-69.34C680.528,287.936,687.263,285.302,694.254,285.302z"/>
	</g>
	<g clip-path="url(#SVGID_2_)">
		<path fill="#662D91" d="M826.26,433.392c15.359,0,27.81,12.452,27.81,27.811v2249.472c0,7.822-3.294,15.282-9.073,20.552
			l-434.71,396.353c-11.347,10.345-28.939,9.537-39.285-1.814c-10.348-11.35-9.537-28.938,1.813-39.285l425.637-388.081V461.203
			C798.452,445.844,810.903,433.392,826.26,433.392z"/>
	</g>
	<g clip-path="url(#SVGID_2_)">
		<g>
			<path fill="#FFFFFF" d="M823.893,2450.732h0.512c8.194,0,14.839,6.645,14.839,14.84c0,8.196-6.645,14.841-14.839,14.841h-0.512
				c-8.196,0-14.84-6.645-14.84-14.841C809.053,2457.377,815.697,2450.732,823.893,2450.732z"/>
		</g>
		<g>
			<path fill="#FFFFFF" d="M421.868,2219.332c3.745,0,7.495,1.41,10.384,4.238l0.778,0.764c5.856,5.735,5.954,15.131,0.218,20.985
				c-5.735,5.856-15.129,5.954-20.986,0.219l-0.779-0.764c-5.855-5.735-5.953-15.131-0.218-20.987
				C414.172,2220.82,418.018,2219.332,421.868,2219.332z M492.812,2288.798c3.746,0,7.495,1.409,10.384,4.238l0.779,0.764
				c5.855,5.735,5.952,15.132,0.217,20.986c-5.736,5.855-15.131,5.953-20.987,0.218l-0.78-0.764
				c-5.854-5.735-5.952-15.131-0.216-20.986C485.116,2290.286,488.962,2288.798,492.812,2288.798z M563.755,2358.264
				c3.746,0,7.496,1.41,10.384,4.238l0.779,0.765c5.855,5.734,5.952,15.13,0.218,20.985c-5.736,5.856-15.13,5.953-20.986,0.218
				l-0.78-0.764c-5.855-5.734-5.953-15.131-0.218-20.985C556.059,2359.753,559.907,2358.264,563.755,2358.264z M634.699,2427.73
				c3.745,0,7.492,1.408,10.38,4.235l0.78,0.763c5.857,5.733,5.958,15.129,0.225,20.986c-5.733,5.856-15.13,5.959-20.986,0.225
				l-0.78-0.764c-5.857-5.732-5.958-15.129-0.225-20.985C626.999,2429.221,630.849,2427.73,634.699,2427.73z M724.602,2450.732
				h1.092c8.196,0,14.839,6.645,14.839,14.84c0,8.196-6.644,14.841-14.839,14.841h-1.092c-8.195,0-14.84-6.645-14.84-14.841
				C709.761,2457.377,716.406,2450.732,724.602,2450.732z"/>
		</g>
		<g>
			<path fill="#FFFFFF" d="M351.337,2149.76c6.323,0,11.721,3.953,13.859,9.521c2.486,5.423,1.535,12.046-2.885,16.564
				c-5.73,5.859-15.128,5.964-20.985,0.232l-0.366-0.357c-2.854-2.793-4.463-6.616-4.463-10.608v-0.513
				C336.497,2156.403,343.142,2149.76,351.337,2149.76z"/>
		</g>
		<g>
			<path fill="#FFFFFF" d="M351.337-0.614c8.196,0,14.841,6.644,14.841,14.839v1.028c0,8.196-6.645,14.84-14.841,14.84
				c-8.195,0-14.84-6.645-14.84-14.84v-1.028C336.497,6.03,343.142-0.614,351.337-0.614z M351.337,92.881
				c8.196,0,14.841,6.644,14.841,14.839v1.027c0,8.197-6.645,14.841-14.841,14.841c-8.195,0-14.84-6.645-14.84-14.841v-1.027
				C336.497,99.525,343.142,92.881,351.337,92.881z M351.337,186.375c8.196,0,14.841,6.644,14.841,14.839v1.028
				c0,8.196-6.645,14.84-14.841,14.84c-8.195,0-14.84-6.645-14.84-14.84v-1.028C336.497,193.019,343.142,186.375,351.337,186.375z
				 M351.337,279.868c8.196,0,14.841,6.646,14.841,14.841v1.028c0,8.196-6.645,14.84-14.841,14.84c-8.195,0-14.84-6.645-14.84-14.84
				v-1.028C336.497,286.514,343.142,279.868,351.337,279.868z M351.337,373.363c8.196,0,14.841,6.645,14.841,14.841v1.028
				c0,8.195-6.645,14.839-14.841,14.839c-8.195,0-14.84-6.644-14.84-14.839v-1.028C336.497,380.008,343.142,373.363,351.337,373.363
				z M351.337,466.858c8.196,0,14.841,6.645,14.841,14.839v1.029c0,8.196-6.645,14.84-14.841,14.84
				c-8.195,0-14.84-6.645-14.84-14.84v-1.029C336.497,473.503,343.142,466.858,351.337,466.858z M351.337,560.354
				c8.196,0,14.841,6.644,14.841,14.839v1.028c0,8.195-6.645,14.841-14.841,14.841c-8.195,0-14.84-6.646-14.84-14.841v-1.028
				C336.497,566.997,343.142,560.354,351.337,560.354z M351.337,653.848c8.196,0,14.841,6.645,14.841,14.84v1.028
				c0,8.195-6.645,14.839-14.841,14.839c-8.195,0-14.84-6.644-14.84-14.839v-1.028C336.497,660.492,343.142,653.848,351.337,653.848
				z M351.337,747.342c8.196,0,14.841,6.646,14.841,14.841v1.028c0,8.195-6.645,14.839-14.841,14.839
				c-8.195,0-14.84-6.644-14.84-14.839v-1.028C336.497,753.987,343.142,747.342,351.337,747.342z M351.337,840.838
				c8.196,0,14.841,6.645,14.841,14.84v1.028c0,8.195-6.645,14.84-14.841,14.84c-8.195,0-14.84-6.645-14.84-14.84v-1.028
				C336.497,847.482,343.142,840.838,351.337,840.838z M351.337,934.333c8.196,0,14.841,6.645,14.841,14.84v1.026
				c0,8.196-6.645,14.84-14.841,14.84c-8.195,0-14.84-6.644-14.84-14.84v-1.026C336.497,940.978,343.142,934.333,351.337,934.333z
				 M351.337,1027.827c8.196,0,14.841,6.645,14.841,14.84v1.028c0,8.195-6.645,14.84-14.841,14.84c-8.195,0-14.84-6.645-14.84-14.84
				v-1.028C336.497,1034.472,343.142,1027.827,351.337,1027.827z M351.337,1121.322c8.196,0,14.841,6.645,14.841,14.84v1.027
				c0,8.196-6.645,14.84-14.841,14.84c-8.195,0-14.84-6.644-14.84-14.84v-1.027C336.497,1127.967,343.142,1121.322,351.337,1121.322
				z M351.337,1214.817c8.196,0,14.841,6.644,14.841,14.84v1.027c0,8.195-6.645,14.84-14.841,14.84
				c-8.195,0-14.84-6.645-14.84-14.84v-1.027C336.497,1221.461,343.142,1214.817,351.337,1214.817z M351.337,1308.312
				c8.196,0,14.841,6.644,14.841,14.84v1.027c0,8.195-6.645,14.841-14.841,14.841c-8.195,0-14.84-6.646-14.84-14.841v-1.027
				C336.497,1314.955,343.142,1308.312,351.337,1308.312z M351.337,1401.807c8.196,0,14.841,6.644,14.841,14.836v1.027
				c0,8.194-6.645,14.84-14.841,14.84c-8.195,0-14.84-6.646-14.84-14.84v-1.027C336.497,1408.45,343.142,1401.807,351.337,1401.807z
				 M351.337,1495.296c8.196,0,14.841,6.645,14.841,14.841v1.027c0,8.195-6.645,14.84-14.841,14.84
				c-8.195,0-14.84-6.645-14.84-14.84v-1.027C336.497,1501.94,343.142,1495.296,351.337,1495.296z M351.337,1588.791
				c8.196,0,14.841,6.644,14.841,14.84v1.027c0,8.196-6.645,14.84-14.841,14.84c-8.195,0-14.84-6.644-14.84-14.84v-1.027
				C336.497,1595.435,343.142,1588.791,351.337,1588.791z M351.337,1682.286c8.196,0,14.841,6.644,14.841,14.84v1.027
				c0,8.196-6.645,14.841-14.841,14.841c-8.195,0-14.84-6.645-14.84-14.841v-1.027
				C336.497,1688.93,343.142,1682.286,351.337,1682.286z M351.337,1775.78c8.196,0,14.841,6.645,14.841,14.841v1.027
				c0,8.196-6.645,14.84-14.841,14.84c-8.195,0-14.84-6.644-14.84-14.84v-1.027C336.497,1782.425,343.142,1775.78,351.337,1775.78z
				 M351.337,1869.275c8.196,0,14.841,6.645,14.841,14.84v1.027c0,8.196-6.645,14.841-14.841,14.841
				c-8.195,0-14.84-6.645-14.84-14.841v-1.027C336.497,1875.92,343.142,1869.275,351.337,1869.275z M351.337,1962.77
				c8.196,0,14.841,6.645,14.841,14.84v1.028c0,8.195-6.645,14.841-14.841,14.841c-8.195,0-14.84-6.646-14.84-14.841v-1.028
				C336.497,1969.414,343.142,1962.77,351.337,1962.77z M351.337,2056.265c8.196,0,14.841,6.645,14.841,14.841v1.027
				c0,8.195-6.645,14.84-14.841,14.84c-8.195,0-14.84-6.645-14.84-14.84v-1.027C336.497,2062.909,343.142,2056.265,351.337,2056.265
				z"/>
		</g>
	</g>
	<g clip-path="url(#SVGID_2_)">
		<g>
			<path fill="#FFFFFF" d="M2445.88,2775.203c-8.977,0-16.254,7.277-16.254,16.255v1.093c0,8.978,7.277,16.254,16.254,16.254
				c8.978,0,16.255-7.276,16.255-16.254v-1.093C2462.135,2782.48,2454.857,2775.203,2445.88,2775.203z"/>
			<path fill="#FFFFFF" d="M2445.88,2411.045c8.978,0,16.255-7.277,16.255-16.256v-1.092c0-8.979-7.277-16.256-16.255-16.256
				c-8.977,0-16.254,7.277-16.254,16.256v1.092C2429.626,2403.768,2436.903,2411.045,2445.88,2411.045z"/>
			<path fill="#FFFFFF" d="M2445.88,2311.604c8.978,0,16.255-7.277,16.255-16.254v-1.094c0-8.977-7.277-16.253-16.255-16.253
				c-8.977,0-16.254,7.276-16.254,16.253v1.094C2429.626,2304.326,2436.903,2311.604,2445.88,2311.604z"/>
			<path fill="#FFFFFF" d="M2445.88,2675.764c-8.977,0-16.254,7.277-16.254,16.253v1.095c0,8.977,7.277,16.254,16.254,16.254
				c8.978,0,16.255-7.277,16.255-16.254v-1.095C2462.135,2683.041,2454.857,2675.764,2445.88,2675.764z"/>
		</g>
		<g>
			<path fill="#FFFFFF" d="M2445.484,2178.697c4.159,0,8.32,1.587,11.493,4.762l0.396,0.396c3.048,3.049,4.761,7.183,4.761,11.493
				v0.561c0,8.979-7.277,16.256-16.255,16.256c-6.956,0-12.892-4.371-15.211-10.516c-2.705-5.984-1.598-13.271,3.321-18.189
				C2437.164,2180.284,2441.324,2178.697,2445.484,2178.697z"/>
		</g>
		<g>
			<path fill="#FFFFFF" d="M2049.745,1936.713h1.118c8.978,0,16.255-7.277,16.255-16.254c0-8.978-7.277-16.255-16.255-16.255h-1.118
				c-8.979,0-16.256,7.277-16.256,16.255C2033.489,1929.436,2040.767,1936.713,2049.745,1936.713z"/>
			<path fill="#FFFFFF" d="M2151.632,1936.713h1.119c8.977,0,16.254-7.277,16.254-16.254c0-8.978-7.277-16.255-16.254-16.255h-1.119
				c-8.978,0-16.255,7.277-16.255,16.255C2135.377,1929.436,2142.654,1936.713,2151.632,1936.713z"/>
			<path fill="#FFFFFF" d="M2218.648,1991.105c6.351,6.346,16.643,6.342,22.988-0.008c6.345-6.35,6.341-16.642-0.009-22.987
				l-0.791-0.792c-3.174-3.171-7.332-4.757-11.49-4.757c-4.162,0-8.323,1.59-11.498,4.766c-6.345,6.349-6.342,16.642,0.01,22.986
				L2218.648,1991.105z"/>
			<path fill="#FFFFFF" d="M2362.736,2135.192c6.347,6.347,16.64,6.347,22.986,0c6.349-6.349,6.349-16.64,0-22.987l-0.79-0.791
				c-3.174-3.175-7.334-4.762-11.493-4.762c-4.161,0-8.321,1.587-11.494,4.762c-6.349,6.348-6.349,16.639,0,22.986
				L2362.736,2135.192z"/>
			<path fill="#FFFFFF" d="M2290.694,2063.15c6.351,6.345,16.643,6.342,22.987-0.008c6.346-6.35,6.343-16.641-0.007-22.988
				l-0.793-0.79c-3.173-3.172-7.332-4.757-11.489-4.757c-4.162,0-8.324,1.589-11.498,4.764c-6.345,6.351-6.343,16.644,0.009,22.988
				L2290.694,2063.15z"/>
			<path fill="#FFFFFF" d="M1947.856,1936.713h1.12c8.977,0,16.254-7.277,16.254-16.254c0-8.978-7.277-16.255-16.254-16.255h-1.12
				c-8.978,0-16.255,7.277-16.255,16.255C1931.602,1929.436,1938.879,1936.713,1947.856,1936.713z"/>
			<path fill="#FFFFFF" d="M1642.193,1936.713h1.12c8.976,0,16.253-7.277,16.253-16.254c0-8.978-7.277-16.255-16.253-16.255h-1.12
				c-8.978,0-16.255,7.277-16.255,16.255C1625.938,1929.436,1633.216,1936.713,1642.193,1936.713z"/>
			<path fill="#FFFFFF" d="M1244.339,1879.03l0.83,0.75c6.656,6.025,16.935,5.513,22.958-1.145
				c6.023-6.655,5.511-16.935-1.146-22.96l-0.829-0.75c-3.111-2.814-7.01-4.202-10.9-4.202c-4.433,0-8.851,1.803-12.059,5.347
				C1237.172,1862.728,1237.683,1873.007,1244.339,1879.03z"/>
			<path fill="#FFFFFF" d="M1336.53,1936.713h1.119c8.977,0,16.254-7.277,16.254-16.254c0-8.978-7.277-16.255-16.254-16.255h-1.119
				c-8.976,0-16.254,7.277-16.254,16.255C1320.276,1929.436,1327.554,1936.713,1336.53,1936.713z"/>
			<path fill="#FFFFFF" d="M1845.968,1936.713h1.12c8.978,0,16.255-7.277,16.255-16.254c0-8.978-7.277-16.255-16.255-16.255h-1.12
				c-8.977,0-16.254,7.277-16.254,16.255C1829.714,1929.436,1836.991,1936.713,1845.968,1936.713z"/>
			<path fill="#FFFFFF" d="M1438.418,1936.713h1.119c8.977,0,16.255-7.277,16.255-16.254c0-8.978-7.278-16.255-16.255-16.255h-1.119
				c-8.977,0-16.255,7.277-16.255,16.255C1422.163,1929.436,1429.441,1936.713,1438.418,1936.713z"/>
		</g>
		<g>
			<path fill="#FFFFFF" d="M1180.111,1782.741c3.885,0,7.785,1.386,10.896,4.196l0.416,0.375c6.657,6.021,7.178,16.3,1.158,22.959
				c-6.02,6.658-16.298,7.178-22.959,1.158l-0.416-0.375c-6.659-6.021-7.178-16.3-1.159-22.959
				C1171.257,1784.546,1175.676,1782.741,1180.111,1782.741z"/>
		</g>
	</g>
	<g clip-path="url(#SVGID_2_)">
		<g>
			<path fill="#FFFFFF" d="M1752.048,452.615c8.977,0,16.255-7.278,16.255-16.254v-1.13c0-8.977-7.278-16.254-16.255-16.254
				c-8.978,0-16.255,7.277-16.255,16.254v1.13C1735.793,445.336,1743.07,452.615,1752.048,452.615z"/>
			<path fill="#FFFFFF" d="M1752.048,246.793c8.977,0,16.255-7.278,16.255-16.254v-1.131c0-8.977-7.278-16.255-16.255-16.255
				c-8.978,0-16.255,7.278-16.255,16.255v1.131C1735.793,239.516,1743.07,246.793,1752.048,246.793z"/>
			<path fill="#FFFFFF" d="M1752.048,143.883c8.977,0,16.255-7.279,16.255-16.255v-1.131c0-8.977-7.278-16.254-16.255-16.254
				c-8.978,0-16.255,7.277-16.255,16.254v1.131C1735.793,136.604,1743.07,143.883,1752.048,143.883z"/>
			<path fill="#FFFFFF" d="M1752.048,761.347c8.977,0,16.255-7.277,16.255-16.255v-1.131c0-8.976-7.278-16.253-16.255-16.253
				c-8.978,0-16.255,7.277-16.255,16.253v1.131C1735.793,754.069,1743.07,761.347,1752.048,761.347z"/>
			<path fill="#FFFFFF" d="M1752.048,2683.005c-8.979,0-16.256,7.277-16.256,16.254v1.131c0,8.978,7.277,16.255,16.256,16.255
				c8.977,0,16.255-7.277,16.255-16.255v-1.131C1768.303,2690.282,1761.024,2683.005,1752.048,2683.005z"/>
			<path fill="#FFFFFF" d="M1752.048,864.256c8.977,0,16.255-7.276,16.255-16.254v-1.13c0-8.976-7.278-16.254-16.255-16.254
				c-8.978,0-16.255,7.278-16.255,16.254v1.13C1735.793,856.98,1743.07,864.256,1752.048,864.256z"/>
			<path fill="#FFFFFF" d="M1752.048,40.973c8.977,0,16.255-7.278,16.255-16.254v-1.132c0-8.977-7.278-16.254-16.255-16.254
				c-8.978,0-16.255,7.277-16.255,16.254v1.132C1735.793,33.695,1743.07,40.973,1752.048,40.973z"/>
			<path fill="#FFFFFF" d="M1752.048,2785.916c-8.979,0-16.256,7.277-16.256,16.255v1.13c0,8.978,7.277,16.255,16.256,16.255
				c8.977,0,16.255-7.277,16.255-16.255v-1.13C1768.303,2793.193,1761.024,2785.916,1752.048,2785.916z"/>
			<path fill="#FFFFFF" d="M1752.048,1790.449c8.977,0,16.255-7.276,16.255-16.255v-1.131c0-8.976-7.278-16.255-16.255-16.255
				c-8.979,0-16.256,7.279-16.256,16.255v1.131C1735.792,1783.173,1743.069,1790.449,1752.048,1790.449z"/>
			<path fill="#FFFFFF" d="M1752.048,2099.182c8.977,0,16.255-7.277,16.255-16.254v-1.133c0-8.977-7.278-16.254-16.255-16.254
				c-8.979,0-16.256,7.277-16.256,16.254v1.133C1735.792,2091.904,1743.069,2099.182,1752.048,2099.182z"/>
			<path fill="#FFFFFF" d="M1752.048,1996.271c8.977,0,16.255-7.276,16.255-16.255v-1.131c0-8.977-7.278-16.254-16.255-16.254
				c-8.979,0-16.256,7.277-16.256,16.254v1.131C1735.792,1988.994,1743.069,1996.271,1752.048,1996.271z"/>
			<path fill="#FFFFFF" d="M1752.048,2202.092c8.977,0,16.255-7.277,16.255-16.254v-1.132c0-8.976-7.278-16.253-16.255-16.253
				c-8.979,0-16.256,7.277-16.256,16.253v1.132C1735.792,2194.814,1743.069,2202.092,1752.048,2202.092z"/>
			<path fill="#FFFFFF" d="M1752.048,967.169c8.977,0,16.255-7.278,16.255-16.255v-1.133c0-8.976-7.278-16.253-16.255-16.253
				c-8.978,0-16.255,7.277-16.255,16.253v1.133C1735.793,959.892,1743.07,967.169,1752.048,967.169z"/>
			<path fill="#FFFFFF" d="M1752.048,2305.003c8.977,0,16.255-7.277,16.255-16.255v-1.131c0-8.977-7.278-16.254-16.255-16.254
				c-8.979,0-16.256,7.277-16.256,16.254v1.131C1735.792,2297.726,1743.069,2305.003,1752.048,2305.003z"/>
			<path fill="#FFFFFF" d="M1752.048,2407.913c8.977,0,16.255-7.277,16.255-16.255v-1.131c0-8.977-7.278-16.254-16.255-16.254
				c-8.979,0-16.256,7.277-16.256,16.254v1.131C1735.792,2400.636,1743.069,2407.913,1752.048,2407.913z"/>
			<path fill="#FFFFFF" d="M1752.048,1070.078c8.977,0,16.255-7.277,16.255-16.254v-1.131c0-8.977-7.278-16.254-16.255-16.254
				c-8.978,0-16.255,7.277-16.255,16.254v1.131C1735.793,1062.801,1743.07,1070.078,1752.048,1070.078z"/>
			<path fill="#FFFFFF" d="M1752.048,1275.899c8.977,0,16.255-7.278,16.255-16.254v-1.132c0-8.976-7.278-16.253-16.255-16.253
				c-8.978,0-16.255,7.277-16.255,16.253v1.132C1735.793,1268.621,1743.07,1275.899,1752.048,1275.899z"/>
			<path fill="#FFFFFF" d="M1752.048,1584.627c8.977,0,16.255-7.277,16.255-16.254v-1.131c0-8.978-7.278-16.255-16.255-16.255
				c-8.979,0-16.256,7.277-16.256,16.255v1.131C1735.792,1577.35,1743.069,1584.627,1752.048,1584.627z"/>
			<path fill="#FFFFFF" d="M1752.048,1687.538c8.977,0,16.255-7.277,16.255-16.254v-1.131c0-8.978-7.278-16.255-16.255-16.255
				c-8.979,0-16.256,7.277-16.256,16.255v1.131C1735.792,1680.261,1743.069,1687.538,1752.048,1687.538z"/>
		</g>
	</g>
	<g clip-path="url(#SVGID_2_)">
		<g>
			<path fill="#FFFFFF" d="M2744.755,2399.963l0.826-0.76c6.615-6.066,7.059-16.35,0.992-22.966
				c-3.206-3.495-7.588-5.267-11.983-5.267c-3.926,0-7.863,1.414-10.983,4.275l-0.826,0.758c-6.615,6.067-7.06,16.352-0.993,22.967
				C2727.856,2405.586,2738.138,2406.031,2744.755,2399.963z"/>
			<path fill="#FFFFFF" d="M2594.294,2537.884l0.826-0.757c6.617-6.067,7.066-16.349,1-22.966
				c-3.206-3.499-7.589-5.272-11.986-5.272c-3.924,0-7.858,1.412-10.979,4.271l-0.826,0.758c-6.618,6.065-7.066,16.348-1,22.967
				C2577.396,2543.502,2587.677,2543.949,2594.294,2537.884z"/>
			<path fill="#FFFFFF" d="M2669.522,2468.925l0.826-0.758c6.617-6.065,7.065-16.348,1-22.965
				c-3.206-3.499-7.589-5.272-11.987-5.272c-3.923,0-7.858,1.412-10.979,4.272l-0.826,0.757c-6.618,6.066-7.065,16.348-1.001,22.965
				C2652.622,2474.543,2662.904,2474.989,2669.522,2468.925z"/>
			<path fill="#FFFFFF" d="M2819.981,2331.002l0.828-0.757c6.614-6.067,7.059-16.351,0.99-22.966
				c-3.206-3.496-7.586-5.268-11.982-5.268c-3.925,0-7.863,1.413-10.983,4.276l-0.826,0.757c-6.615,6.068-7.06,16.352-0.992,22.967
				C2803.084,2336.627,2813.366,2337.071,2819.981,2331.002z"/>
			<path fill="#FFFFFF" d="M1578.921,2583.616h1.121c8.977,0,16.254-7.277,16.254-16.255c0-8.979-7.277-16.255-16.254-16.255h-1.121
				c-8.979,0-16.256,7.276-16.256,16.255C1562.665,2576.339,1569.942,2583.616,1578.921,2583.616z"/>
			<path fill="#FFFFFF" d="M1476.869,2583.616h1.122c8.976,0,16.253-7.277,16.253-16.255c0-8.979-7.277-16.255-16.253-16.255h-1.122
				c-8.976,0-16.255,7.276-16.255,16.255C1460.614,2576.339,1467.894,2583.616,1476.869,2583.616z"/>
			<path fill="#FFFFFF" d="M1987.127,2583.616h1.122c8.977,0,16.254-7.277,16.254-16.255c0-8.979-7.277-16.255-16.254-16.255h-1.122
				c-8.977,0-16.254,7.276-16.254,16.255C1970.873,2576.339,1978.15,2583.616,1987.127,2583.616z"/>
			<path fill="#FFFFFF" d="M2191.231,2583.616h1.121c8.977,0,16.254-7.277,16.254-16.255c0-8.979-7.277-16.255-16.254-16.255h-1.121
				c-8.978,0-16.254,7.276-16.254,16.255C2174.978,2576.339,2182.254,2583.616,2191.231,2583.616z"/>
			<path fill="#FFFFFF" d="M1885.076,2583.616h1.121c8.977,0,16.255-7.277,16.255-16.255c0-8.979-7.278-16.255-16.255-16.255h-1.121
				c-8.978,0-16.255,7.276-16.255,16.255C1868.821,2576.339,1876.099,2583.616,1885.076,2583.616z"/>
			<path fill="#FFFFFF" d="M2089.179,2583.616h1.121c8.979,0,16.256-7.277,16.256-16.255c0-8.979-7.277-16.255-16.256-16.255h-1.121
				c-8.977,0-16.254,7.276-16.254,16.255C2072.925,2576.339,2080.202,2583.616,2089.179,2583.616z"/>
			<path fill="#FFFFFF" d="M2293.283,2583.616h1.12c8.979,0,16.256-7.277,16.256-16.255c0-8.979-7.277-16.255-16.256-16.255h-1.12
				c-8.976,0-16.254,7.276-16.254,16.255C2277.029,2576.339,2284.308,2583.616,2293.283,2583.616z"/>
		</g>
		<g>
			<path fill="#FFFFFF" d="M1375.377,2551.106h0.561c8.977,0,16.254,7.276,16.254,16.255c0,8.978-7.277,16.255-16.254,16.255h-0.561
				c-8.976,0-16.253-7.277-16.253-16.255C1359.124,2558.383,1366.401,2551.106,1375.377,2551.106z"/>
		</g>
	</g>
	<g clip-path="url(#SVGID_2_)">
		<g>
			<path fill="#FFFFFF" d="M2292.092,1700.688c3.799,0,7.597,1.448,10.494,4.347l0.36,0.361c5.796,5.796,5.796,15.192,0,20.987
				c-5.795,5.796-15.191,5.796-20.986,0l-0.361-0.361c-5.796-5.796-5.796-15.191,0-20.987
				C2284.495,1702.136,2288.293,1700.688,2292.092,1700.688z"/>
		</g>
		<g>
			<path fill="#FFFFFF" d="M1455.204,1387.807h1.062c8.195,0,14.841,6.644,14.841,14.84c0,8.194-6.646,14.837-14.841,14.837h-1.062
				c-8.196,0-14.84-6.643-14.84-14.837C1440.364,1394.451,1447.008,1387.807,1455.204,1387.807z M1551.854,1387.807h1.062
				c8.196,0,14.84,6.644,14.84,14.84c0,8.194-6.644,14.837-14.84,14.837h-1.062c-8.196,0-14.841-6.643-14.841-14.837
				C1537.013,1394.451,1543.657,1387.807,1551.854,1387.807z M1648.502,1387.807h1.062c8.196,0,14.84,6.644,14.84,14.84
				c0,8.194-6.645,14.837-14.84,14.837h-1.062c-8.196,0-14.84-6.643-14.84-14.837
				C1633.662,1394.451,1640.306,1387.807,1648.502,1387.807z M1745.15,1387.807h1.062c8.196,0,14.841,6.644,14.841,14.84
				c0,8.194-6.645,14.837-14.841,14.837h-1.062c-8.196,0-14.84-6.643-14.84-14.837
				C1730.311,1394.451,1736.954,1387.807,1745.15,1387.807z M1841.8,1387.807h1.062c8.195,0,14.84,6.644,14.84,14.84
				c0,8.194-6.645,14.837-14.84,14.837h-1.063c-8.195,0-14.839-6.643-14.839-14.837
				C1826.96,1394.451,1833.604,1387.807,1841.8,1387.807z M1938.448,1387.807h1.062c8.195,0,14.841,6.644,14.841,14.84
				c0,8.194-6.646,14.837-14.841,14.837h-1.062c-8.195,0-14.84-6.643-14.84-14.837
				C1923.608,1394.451,1930.253,1387.807,1938.448,1387.807z M2018.728,1427.323c3.8,0,7.599,1.45,10.496,4.351l0.752,0.751
				c5.793,5.797,5.79,15.194-0.007,20.987c-5.797,5.792-15.194,5.79-20.987-0.006l-0.751-0.751
				c-5.794-5.799-5.791-15.194,0.007-20.988C2011.134,1428.771,2014.931,1427.323,2018.728,1427.323z M2087.068,1495.666
				c3.797,0,7.593,1.446,10.489,4.342l0.752,0.751c5.797,5.794,5.801,15.19,0.008,20.987c-5.794,5.797-15.191,5.801-20.988,0.008
				l-0.751-0.75c-5.798-5.794-5.8-15.191-0.007-20.988C2079.469,1497.114,2083.269,1495.666,2087.068,1495.666z M2155.409,1564.006
				c3.799,0,7.597,1.449,10.493,4.348l0.752,0.75c5.796,5.795,5.796,15.192,0,20.987c-5.795,5.796-15.192,5.796-20.987,0
				l-0.751-0.751c-5.796-5.796-5.796-15.191,0-20.986C2147.813,1565.455,2151.611,1564.006,2155.409,1564.006z M2223.751,1632.347
				c3.797,0,7.595,1.448,10.492,4.347l0.752,0.751c5.796,5.795,5.796,15.191,0,20.987c-5.795,5.796-15.191,5.796-20.987,0
				l-0.751-0.752c-5.795-5.795-5.795-15.19,0-20.986C2216.154,1633.795,2219.952,1632.347,2223.751,1632.347z"/>
		</g>
		<g>
			<path fill="#FFFFFF" d="M1359.105,1387.807h0.512c8.196,0,14.84,6.644,14.84,14.84c0,6.207-3.812,11.523-9.224,13.738
				c-5.26,2.545-11.763,1.83-16.384-2.315c-6.1-5.473-6.605-14.856-1.13-20.955l0.341-0.38
				C1350.877,1389.598,1354.893,1387.807,1359.105,1387.807z"/>
		</g>
		<g>
			<path fill="#FFFFFF" d="M1289.177,1465.684c3.532,0,7.075,1.253,9.91,3.797c6.099,5.477,6.604,14.859,1.128,20.959l-0.775,0.861
				c-5.475,6.098-14.86,6.604-20.957,1.127c-6.099-5.477-6.604-14.858-1.127-20.957l0.773-0.861
				C1281.061,1467.346,1285.112,1465.684,1289.177,1465.684z"/>
		</g>
		<g>
			<path fill="#FFFFFF" d="M1218.812,1544.045c3.531,0,7.073,1.251,9.907,3.797c6.101,5.475,6.606,14.856,1.131,20.956l-0.341,0.381
				c-2.815,3.136-6.831,4.928-11.043,4.928h-0.512c-8.195,0-14.839-6.646-14.839-14.841c0-6.208,3.812-11.526,9.223-13.74
				C1214.369,1544.541,1216.588,1544.045,1218.812,1544.045z"/>
		</g>
		<g>
			<path fill="#FFFFFF" d="M-467.61,1544.426h1.028c8.195,0,14.84,6.645,14.84,14.84s-6.645,14.841-14.84,14.841h-1.028
				c-8.196,0-14.84-6.646-14.84-14.841S-475.806,1544.426-467.61,1544.426z M-373.967,1544.426h1.028
				c8.196,0,14.84,6.645,14.84,14.84s-6.645,14.841-14.84,14.841h-1.028c-8.196,0-14.841-6.646-14.841-14.841
				S-382.163,1544.426-373.967,1544.426z M-280.327,1544.426h1.03c8.195,0,14.841,6.645,14.841,14.84s-6.646,14.841-14.841,14.841
				h-1.03c-8.195,0-14.84-6.646-14.84-14.841S-288.522,1544.426-280.327,1544.426z M-186.684,1544.426h1.029
				c8.197,0,14.841,6.645,14.841,14.84s-6.645,14.841-14.841,14.841h-1.029c-8.195,0-14.839-6.646-14.839-14.841
				S-194.879,1544.426-186.684,1544.426z M-93.04,1544.426h1.027c8.197,0,14.841,6.645,14.841,14.84s-6.645,14.841-14.841,14.841
				h-1.027c-8.197,0-14.841-6.646-14.841-14.841S-101.237,1544.426-93.04,1544.426z M0.602,1544.426h1.029
				c8.195,0,14.839,6.645,14.839,14.84s-6.645,14.841-14.839,14.841H0.602c-8.197,0-14.841-6.646-14.841-14.841
				S-7.595,1544.426,0.602,1544.426z M94.244,1544.426h1.03c8.195,0,14.84,6.645,14.84,14.84s-6.645,14.841-14.84,14.841h-1.03
				c-8.195,0-14.841-6.646-14.841-14.841S86.049,1544.426,94.244,1544.426z M187.886,1544.426h1.028
				c8.196,0,14.841,6.645,14.841,14.84s-6.645,14.841-14.841,14.841h-1.028c-8.196,0-14.839-6.646-14.839-14.841
				S179.69,1544.426,187.886,1544.426z M281.529,1544.426h1.029c8.195,0,14.84,6.645,14.84,14.84s-6.646,14.841-14.84,14.841h-1.029
				c-8.196,0-14.84-6.646-14.84-14.841S273.333,1544.426,281.529,1544.426z M375.172,1544.426h1.028
				c8.196,0,14.84,6.645,14.84,14.84s-6.645,14.841-14.84,14.841h-1.028c-8.196,0-14.841-6.646-14.841-14.841
				S366.976,1544.426,375.172,1544.426z M468.813,1544.426h1.029c8.197,0,14.841,6.645,14.841,14.84s-6.645,14.841-14.841,14.841
				h-1.029c-8.195,0-14.84-6.646-14.84-14.841S460.618,1544.426,468.813,1544.426z M562.456,1544.426h1.029
				c8.196,0,14.84,6.645,14.84,14.84s-6.645,14.841-14.84,14.841h-1.029c-8.196,0-14.841-6.646-14.841-14.841
				S554.26,1544.426,562.456,1544.426z M656.099,1544.426h1.03c8.196,0,14.839,6.645,14.839,14.84s-6.644,14.841-14.839,14.841
				h-1.03c-8.196,0-14.84-6.646-14.84-14.841S647.902,1544.426,656.099,1544.426z M749.741,1544.426h1.029
				c8.196,0,14.84,6.645,14.84,14.84s-6.644,14.841-14.84,14.841h-1.029c-8.196,0-14.84-6.646-14.84-14.841
				S741.545,1544.426,749.741,1544.426z M843.383,1544.426h1.029c8.195,0,14.84,6.645,14.84,14.84s-6.645,14.841-14.84,14.841
				h-1.029c-8.195,0-14.839-6.646-14.839-14.841S835.188,1544.426,843.383,1544.426z M937.025,1544.426h1.03
				c8.195,0,14.84,6.645,14.84,14.84s-6.645,14.841-14.84,14.841h-1.03c-8.196,0-14.839-6.646-14.839-14.841
				S928.83,1544.426,937.025,1544.426z M1030.668,1544.426h1.029c8.196,0,14.84,6.645,14.84,14.84s-6.644,14.841-14.84,14.841
				h-1.029c-8.196,0-14.84-6.646-14.84-14.841S1022.473,1544.426,1030.668,1544.426z M1124.311,1544.426h1.029
				c8.196,0,14.84,6.645,14.84,14.84s-6.645,14.841-14.84,14.841h-1.029c-8.195,0-14.84-6.646-14.84-14.841
				S1116.115,1544.426,1124.311,1544.426z M-543.955,1585.116c3.921,0,7.836,1.545,10.752,4.609
				c5.65,5.938,5.418,15.332-0.52,20.981l-0.746,0.71c-5.935,5.65-15.33,5.418-20.98-0.519c-5.65-5.937-5.417-15.331,0.519-20.981
				l0.746-0.71C-551.312,1586.475-547.631,1585.116-543.955,1585.116z M-611.78,1649.682c3.922,0,7.834,1.544,10.752,4.609
				c5.65,5.937,5.418,15.33-0.52,20.98l-0.746,0.71c-5.937,5.651-15.331,5.419-20.98-0.519c-5.65-5.937-5.418-15.331,0.52-20.981
				l0.744-0.709C-619.138,1651.039-615.455,1649.682-611.78,1649.682z M-679.606,1714.247c3.921,0,7.836,1.544,10.751,4.609
				c5.652,5.938,5.419,15.33-0.519,20.981l-0.746,0.709c-5.935,5.649-15.331,5.419-20.98-0.52c-5.65-5.937-5.418-15.33,0.519-20.98
				l0.747-0.709C-686.962,1715.604-683.281,1714.247-679.606,1714.247z M-747.431,1778.812c3.923,0,7.838,1.545,10.756,4.613
				c5.647,5.938,5.413,15.332-0.525,20.979l-0.747,0.71c-5.939,5.647-15.333,5.413-20.98-0.526s-5.413-15.333,0.526-20.98
				l0.745-0.71C-754.785,1780.168-751.104,1778.812-747.431,1778.812z M-815.257,1843.377c3.918,0,7.829,1.541,10.745,4.602
				c5.654,5.934,5.429,15.327-0.504,20.981l-0.745,0.71c-5.935,5.653-15.327,5.428-20.982-0.505
				c-5.653-5.933-5.427-15.327,0.505-20.981l0.745-0.709C-822.62,1844.736-818.934,1843.377-815.257,1843.377z M-1277.5,1860.869
				h1.028c8.196,0,14.839,6.644,14.839,14.841c0,8.195-6.644,14.84-14.839,14.84h-1.028c-8.196,0-14.841-6.645-14.841-14.84
				C-1292.341,1867.513-1285.696,1860.869-1277.5,1860.869z M-1183.859,1860.869h1.029c8.197,0,14.84,6.644,14.84,14.841
				c0,8.195-6.644,14.84-14.84,14.84h-1.029c-8.197,0-14.84-6.645-14.84-14.84
				C-1198.699,1867.513-1192.056,1860.869-1183.859,1860.869z M-1090.217,1860.869h1.03c8.196,0,14.84,6.644,14.84,14.841
				c0,8.195-6.645,14.84-14.84,14.84h-1.03c-8.195,0-14.839-6.645-14.839-14.84
				C-1105.056,1867.513-1098.412,1860.869-1090.217,1860.869z M-996.574,1860.869h1.029c8.196,0,14.841,6.644,14.841,14.841
				c0,8.195-6.645,14.84-14.841,14.84h-1.029c-8.196,0-14.84-6.645-14.84-14.84
				C-1011.414,1867.513-1004.77,1860.869-996.574,1860.869z M-902.931,1860.869h1.029c8.195,0,14.84,6.644,14.84,14.841
				c0,8.195-6.645,14.84-14.84,14.84h-1.029c-8.196,0-14.84-6.645-14.84-14.84C-917.771,1867.513-911.127,1860.869-902.931,1860.869
				z"/>
		</g>
	</g>
	<g clip-path="url(#SVGID_2_)">
		<path fill="#FFFFFF" d="M1107.268,584.196h652.072c1.321,0,2.592,0.511,3.544,1.425l159.822,153.424
			c1.004,0.966,1.573,2.3,1.573,3.693v93.753l931.824,919.076c2.011,1.985,2.033,5.226,0.049,7.237s-5.225,2.034-7.237,0.05
			l-933.347-920.58c-0.976-0.962-1.524-2.274-1.524-3.644v-93.713L1757.281,594.43H1109.4l-752.848,759.228
			c-1.99,2.006-5.229,2.022-7.238,0.031c-2.006-1.991-2.021-5.23-0.03-7.237l754.349-760.741
			C1104.595,584.741,1105.903,584.196,1107.268,584.196z"/>
	</g>
	<g clip-path="url(#SVGID_2_)">
		<g>
			<path fill="#FFFFFF" d="M2138.514,298.273h0.513c8.195,0,14.839,6.644,14.839,14.84c0,8.195-6.644,14.84-14.839,14.84h-0.513
				c-8.195,0-14.841-6.645-14.841-14.84C2123.673,304.917,2130.318,298.273,2138.514,298.273z"/>
		</g>
		<g>
			<path fill="#FFFFFF" d="M746.472,298.273h1.02c8.196,0,14.84,6.644,14.84,14.84c0,8.195-6.644,14.84-14.84,14.84h-1.02
				c-8.196,0-14.839-6.645-14.839-14.84C731.633,304.917,738.276,298.273,746.472,298.273z M839.276,298.273h1.02
				c8.195,0,14.84,6.644,14.84,14.84c0,8.195-6.645,14.84-14.84,14.84h-1.02c-8.197,0-14.84-6.645-14.84-14.84
				C824.436,304.917,831.079,298.273,839.276,298.273z M932.078,298.273h1.021c8.196,0,14.84,6.644,14.84,14.84
				c0,8.195-6.645,14.84-14.84,14.84h-1.021c-8.196,0-14.84-6.645-14.84-14.84C917.237,304.917,923.882,298.273,932.078,298.273z
				 M1024.881,298.273h1.019c8.197,0,14.841,6.644,14.841,14.84c0,8.195-6.645,14.84-14.841,14.84h-1.019
				c-8.196,0-14.84-6.645-14.84-14.84C1010.041,304.917,1016.685,298.273,1024.881,298.273z M1117.684,298.273h1.02
				c8.195,0,14.84,6.644,14.84,14.84c0,8.195-6.645,14.84-14.84,14.84h-1.02c-8.196,0-14.841-6.645-14.841-14.84
				C1102.843,304.917,1109.488,298.273,1117.684,298.273z M1210.486,298.273h1.02c8.195,0,14.84,6.644,14.84,14.84
				c0,8.195-6.645,14.84-14.84,14.84h-1.02c-8.196,0-14.84-6.645-14.84-14.84C1195.646,304.917,1202.291,298.273,1210.486,298.273z
				 M1303.289,298.273h1.02c8.196,0,14.841,6.644,14.841,14.84c0,8.195-6.645,14.84-14.841,14.84h-1.02
				c-8.195,0-14.84-6.645-14.84-14.84C1288.449,304.917,1295.094,298.273,1303.289,298.273z M1396.092,298.273h1.02
				c8.196,0,14.841,6.644,14.841,14.84c0,8.195-6.645,14.84-14.841,14.84h-1.02c-8.195,0-14.841-6.645-14.841-14.84
				C1381.251,304.917,1387.896,298.273,1396.092,298.273z M1488.895,298.273h1.02c8.196,0,14.841,6.644,14.841,14.84
				c0,8.195-6.645,14.84-14.841,14.84h-1.02c-8.196,0-14.84-6.645-14.84-14.84C1474.055,304.917,1480.698,298.273,1488.895,298.273z
				 M1581.697,298.273h1.02c8.196,0,14.841,6.644,14.841,14.84c0,8.195-6.645,14.84-14.841,14.84h-1.02
				c-8.196,0-14.841-6.645-14.841-14.84C1566.856,304.917,1573.501,298.273,1581.697,298.273z M1674.499,298.273h1.021
				c8.197,0,14.84,6.644,14.84,14.84c0,8.195-6.643,14.84-14.84,14.84h-1.021c-8.195,0-14.839-6.645-14.839-14.84
				C1659.66,304.917,1666.304,298.273,1674.499,298.273z M1767.304,298.273h1.02c8.196,0,14.84,6.644,14.84,14.84
				c0,8.195-6.644,14.84-14.84,14.84h-1.02c-8.197,0-14.842-6.645-14.842-14.84C1752.462,304.917,1759.106,298.273,1767.304,298.273
				z M1860.105,298.273h1.021c8.194,0,14.839,6.644,14.839,14.84c0,8.195-6.645,14.84-14.839,14.84h-1.021
				c-8.196,0-14.841-6.645-14.841-14.84C1845.265,304.917,1851.909,298.273,1860.105,298.273z M1952.909,298.273h1.02
				c8.195,0,14.84,6.644,14.84,14.84c0,8.195-6.645,14.84-14.84,14.84h-1.02c-8.197,0-14.842-6.645-14.842-14.84
				C1938.067,304.917,1944.712,298.273,1952.909,298.273z M2045.711,298.273h1.02c8.196,0,14.841,6.644,14.841,14.84
				c0,8.195-6.645,14.84-14.841,14.84h-1.02c-8.196,0-14.841-6.645-14.841-14.84C2030.87,304.917,2037.515,298.273,2045.711,298.273
				z M665.178,325.108c3.999,0,7.986,1.606,10.912,4.775c5.557,6.024,5.179,15.413-0.843,20.971l-0.75,0.692
				c-6.025,5.556-15.414,5.18-20.971-0.843c-5.557-6.025-5.179-15.413,0.843-20.972l0.75-0.692
				C657.972,326.409,661.58,325.108,665.178,325.108z M590.859,374.984h1.021c8.196,0,14.84,6.645,14.84,14.84
				c0,8.196-6.645,14.84-14.84,14.84h-1.021c-8.196,0-14.841-6.644-14.841-14.84C576.019,381.629,582.663,374.984,590.859,374.984z"
				/>
		</g>
		<g>
			<path fill="#FFFFFF" d="M498.565,374.984h0.511c8.196,0,14.841,6.645,14.841,14.84c0,8.196-6.645,14.84-14.841,14.84h-0.511
				c-8.196,0-14.841-6.644-14.841-14.84C483.724,381.629,490.369,374.984,498.565,374.984z"/>
		</g>
	</g>
	<g clip-path="url(#SVGID_2_)">
		<g>
			<path fill="#FFFFFF" d="M754.192,2760.127c4.41,0,8.804,1.783,12.01,5.297c6.051,6.631,5.582,16.912-1.049,22.964l-0.796,0.726
				c-6.628,6.051-16.912,5.583-22.962-1.049c-6.052-6.631-5.581-16.91,1.049-22.962l0.796-0.728
				C746.356,2761.531,750.28,2760.127,754.192,2760.127z M681.747,2826.182c4.414,0,8.814,1.787,12.022,5.31
				c6.043,6.636,5.562,16.918-1.073,22.961l-0.797,0.727c-6.637,6.045-16.917,5.565-22.962-1.072
				c-6.043-6.638-5.563-16.918,1.073-22.963l0.797-0.726C673.919,2827.581,677.84,2826.182,681.747,2826.182z M609.299,2892.236
				c4.412,0,8.806,1.785,12.015,5.3c6.049,6.634,5.575,16.913-1.058,22.965l-0.796,0.726c-6.634,6.048-16.912,5.576-22.963-1.059
				c-6.049-6.632-5.576-16.914,1.058-22.963l0.795-0.726C601.466,2893.638,605.387,2892.236,609.299,2892.236z M536.853,2958.289
				c4.412,0,8.808,1.786,12.015,5.301c6.049,6.634,5.574,16.914-1.058,22.964l-0.795,0.726c-6.634,6.049-16.913,5.576-22.963-1.058
				c-6.05-6.633-5.576-16.913,1.058-22.962l0.794-0.727C529.021,2959.691,532.941,2958.289,536.853,2958.289z M464.406,3024.344
				c4.412,0,8.807,1.785,12.015,5.301c6.049,6.633,5.575,16.914-1.058,22.964l-0.795,0.725c-6.633,6.049-16.912,5.577-22.963-1.058
				c-6.05-6.633-5.576-16.913,1.058-22.962l0.796-0.727C456.575,3025.746,460.495,3024.344,464.406,3024.344z"/>
		</g>
		<g>
			<path fill="#FFFFFF" d="M826.26,2693.861c8.976,0,16.254,7.277,16.254,16.255v0.559c0,4.569-1.921,8.927-5.297,12.007
				l-0.414,0.378c-6.63,6.05-16.912,5.582-22.963-1.048c-4.598-5.039-5.432-12.188-2.655-17.985
				C813.595,2698.066,819.437,2693.861,826.26,2693.861z"/>
		</g>
		<g>
			<path fill="#FFFFFF" d="M826.26,989.263c8.976,0,16.254-7.278,16.254-16.254v-1.125c0-8.976-7.278-16.253-16.254-16.253
				s-16.254,7.277-16.254,16.253v1.125C810.006,981.985,817.284,989.263,826.26,989.263z"/>
			<path fill="#FFFFFF" d="M826.26,1091.513c8.976,0,16.254-7.279,16.254-16.255v-1.124c0-8.976-7.278-16.255-16.254-16.255
				s-16.254,7.279-16.254,16.255v1.124C810.006,1084.233,817.284,1091.513,826.26,1091.513z"/>
			<path fill="#FFFFFF" d="M826.26,1296.01c8.976,0,16.254-7.277,16.254-16.254v-1.124c0-8.977-7.278-16.253-16.254-16.253
				s-16.254,7.277-16.254,16.253v1.124C810.006,1288.733,817.284,1296.01,826.26,1296.01z"/>
			<path fill="#FFFFFF" d="M826.26,682.516c8.976,0,16.254-7.278,16.254-16.255v-1.124c0-8.976-7.278-16.254-16.254-16.254
				s-16.254,7.278-16.254,16.254v1.124C810.006,675.238,817.284,682.516,826.26,682.516z"/>
			<path fill="#FFFFFF" d="M826.26,2591.612c-8.976,0-16.254,7.277-16.254,16.253v1.125c0,8.977,7.278,16.254,16.254,16.254
				s16.254-7.277,16.254-16.254v-1.125C842.515,2598.89,835.236,2591.612,826.26,2591.612z"/>
			<path fill="#FFFFFF" d="M826.26,580.268c8.976,0,16.254-7.278,16.254-16.255v-1.124c0-8.976-7.278-16.254-16.254-16.254
				s-16.254,7.278-16.254,16.254v1.124C810.006,572.989,817.284,580.268,826.26,580.268z"/>
			<path fill="#FFFFFF" d="M826.26,887.014c8.976,0,16.254-7.278,16.254-16.254v-1.125c0-8.977-7.278-16.253-16.254-16.253
				s-16.254,7.276-16.254,16.253v1.125C810.006,879.735,817.284,887.014,826.26,887.014z"/>
			<path fill="#FFFFFF" d="M826.26,784.765c8.976,0,16.254-7.278,16.254-16.255v-1.123c0-8.976-7.278-16.255-16.254-16.255
				s-16.254,7.279-16.254,16.255v1.123C810.006,777.487,817.284,784.765,826.26,784.765z"/>
			<path fill="#FFFFFF" d="M826.26,1398.26c8.976,0,16.254-7.278,16.254-16.255v-1.123c0-8.976-7.278-16.254-16.254-16.254
				s-16.254,7.278-16.254,16.254v1.123C810.006,1390.981,817.284,1398.26,826.26,1398.26z"/>
			<path fill="#FFFFFF" d="M826.26,2216.248c8.976,0,16.254-7.277,16.254-16.254v-1.125c0-8.977-7.278-16.254-16.254-16.254
				s-16.254,7.277-16.254,16.254v1.125C810.006,2208.971,817.284,2216.248,826.26,2216.248z"/>
			<path fill="#FFFFFF" d="M826.26,2318.497c8.976,0,16.254-7.278,16.254-16.254v-1.124c0-8.978-7.278-16.255-16.254-16.255
				s-16.254,7.277-16.254,16.255v1.124C810.006,2311.219,817.284,2318.497,826.26,2318.497z"/>
			<path fill="#FFFFFF" d="M826.26,1909.5c8.976,0,16.254-7.275,16.254-16.254v-1.123c0-8.979-7.278-16.256-16.254-16.256
				s-16.254,7.277-16.254,16.255v1.124C810.006,1902.224,817.284,1909.5,826.26,1909.5z"/>
			<path fill="#FFFFFF" d="M826.26,1705.002c8.976,0,16.254-7.278,16.254-16.254v-1.124c0-8.978-7.278-16.255-16.254-16.255
				s-16.254,7.277-16.254,16.255v1.124C810.006,1697.724,817.284,1705.002,826.26,1705.002z"/>
			<path fill="#FFFFFF" d="M826.26,1807.252c8.976,0,16.254-7.276,16.254-16.254v-1.124c0-8.978-7.278-16.255-16.254-16.255
				s-16.254,7.277-16.254,16.254v1.125C810.006,1799.975,817.284,1807.252,826.26,1807.252z"/>
		</g>
		<g>
			<path fill="#FFFFFF" d="M826.26,444.948c8.976,0,16.254,7.279,16.254,16.255v0.561c0,8.976-7.278,16.255-16.254,16.255
				s-16.254-7.279-16.254-16.255v-0.561C810.006,452.227,817.284,444.948,826.26,444.948z"/>
		</g>
	</g>
	
		<path clip-path="url(#SVGID_2_)" fill="#F1F2F2" stroke="#414042" stroke-width="10" stroke-linecap="round" stroke-linejoin="round" stroke-miterlimit="10" d="
		M2406.462,2564.733c0,24.058,19.509,43.567,43.565,43.567c24.058,0,43.567-19.51,43.567-43.567s-19.51-43.567-43.567-43.567
		C2425.971,2521.166,2406.462,2540.676,2406.462,2564.733z"/>
	
		<path clip-path="url(#SVGID_2_)" fill="#F1F2F2" stroke="#414042" stroke-width="10" stroke-linecap="round" stroke-linejoin="round" stroke-miterlimit="10" d="
		M1708.48,2564.733c0,24.058,19.512,43.567,43.567,43.567c24.058,0,43.566-19.51,43.566-43.567s-19.509-43.567-43.566-43.567
		C1727.992,2521.166,1708.48,2540.676,1708.48,2564.733z"/>
	
		<path clip-path="url(#SVGID_2_)" fill="#F1F2F2" stroke="#414042" stroke-width="10" stroke-linecap="round" stroke-linejoin="round" stroke-miterlimit="10" d="
		M1708.48,1906.146c0,24.057,19.512,43.566,43.567,43.566c24.058,0,43.566-19.51,43.566-43.566
		c0-24.058-19.509-43.565-43.566-43.565C1727.992,1862.58,1708.48,1882.088,1708.48,1906.146z"/>
	
		<path clip-path="url(#SVGID_2_)" fill="#F1F2F2" stroke="#414042" stroke-width="10" stroke-linecap="round" stroke-linejoin="round" stroke-miterlimit="10" d="
		M1708.48,1402.647c0,24.054,19.512,43.562,43.567,43.562c24.058,0,43.566-19.508,43.566-43.562
		c0-24.057-19.509-43.567-43.566-43.567C1727.992,1359.08,1708.48,1378.59,1708.48,1402.647z"/>
	
		<path clip-path="url(#SVGID_2_)" fill="#F1F2F2" stroke="#414042" stroke-width="10" stroke-linecap="round" stroke-linejoin="round" stroke-miterlimit="10" d="
		M1708.48,589.313c0,24.056,19.512,43.567,43.567,43.567c24.058,0,43.566-19.511,43.566-43.567
		c0-24.058-19.509-43.566-43.566-43.566C1727.992,545.748,1708.48,565.255,1708.48,589.313z"/>
	
		<path clip-path="url(#SVGID_2_)" fill="#F1F2F2" stroke="#414042" stroke-width="10" stroke-linecap="round" stroke-linejoin="round" stroke-miterlimit="10" d="
		M1708.48,313.113c0,24.057,19.512,43.564,43.567,43.564c24.058,0,43.566-19.507,43.566-43.564
		c0-24.058-19.509-43.568-43.566-43.568C1727.992,269.545,1708.48,289.056,1708.48,313.113z"/>
	
		<path clip-path="url(#SVGID_2_)" fill="#F1F2F2" stroke="#414042" stroke-width="10" stroke-linecap="round" stroke-linejoin="round" stroke-miterlimit="10" d="
		M307.771,389.824c0,24.059,19.509,43.568,43.566,43.568c24.058,0,43.567-19.509,43.567-43.568
		c0-24.054-19.509-43.568-43.567-43.568C327.28,346.256,307.771,365.77,307.771,389.824z"/>
	
		<path clip-path="url(#SVGID_2_)" fill="#F1F2F2" stroke="#414042" stroke-width="10" stroke-linecap="round" stroke-linejoin="round" stroke-miterlimit="10" d="
		M780.836,2465.572c0,24.058,19.51,43.567,43.569,43.567c24.058,0,43.565-19.51,43.565-43.567c0-24.057-19.507-43.566-43.565-43.566
		C800.347,2422.006,780.836,2441.516,780.836,2465.572z"/>
	
		<path clip-path="url(#SVGID_2_)" fill="#F1F2F2" stroke="#414042" stroke-width="10" stroke-linecap="round" stroke-linejoin="round" stroke-miterlimit="10" d="
		M782.425,2043.457c0,24.057,19.509,43.565,43.567,43.565s43.567-19.509,43.567-43.565s-19.509-43.568-43.567-43.568
		S782.425,2019.399,782.425,2043.457z"/>
	
		<path clip-path="url(#SVGID_2_)" fill="#F1F2F2" stroke="#414042" stroke-width="10" stroke-linecap="round" stroke-linejoin="round" stroke-miterlimit="10" d="
		M780.836,1554.672c0,24.059,19.51,43.567,43.569,43.567c24.058,0,43.565-19.509,43.565-43.567
		c0-24.057-19.507-43.566-43.565-43.566C800.347,1511.105,780.836,1530.615,780.836,1554.672z"/>
	
		<path clip-path="url(#SVGID_2_)" fill="#F1F2F2" stroke="#414042" stroke-width="10" stroke-linecap="round" stroke-linejoin="round" stroke-miterlimit="10" d="
		M780.836,870.992c0,24.057,19.51,43.565,43.569,43.565c24.058,0,43.565-19.508,43.565-43.565c0-24.06-19.507-43.57-43.565-43.57
		C800.347,827.422,780.836,846.933,780.836,870.992z"/>
	
		<path clip-path="url(#SVGID_2_)" fill="#F1F2F2" stroke="#414042" stroke-width="10" stroke-linecap="round" stroke-linejoin="round" stroke-miterlimit="10" d="
		M1233.584,2425.641c15.389-15.479,36.559-19.386,47.283-8.724l124.49,123.763c10.726,10.66,6.945,31.855-8.443,47.332l0,0
		c-15.393,15.481-36.561,19.387-47.286,8.727l-124.492-123.762C1214.412,2462.312,1218.193,2441.12,1233.584,2425.641
		L1233.584,2425.641z"/>
	
		<path clip-path="url(#SVGID_2_)" fill="#F1F2F2" stroke="#414042" stroke-width="10" stroke-linecap="round" stroke-linejoin="round" stroke-miterlimit="10" d="
		M321.539,1385.264c-0.915,2.036-1.407,4.196-1.407,6.438l0.083,138.416c0,2.63,0.713,5.138,1.959,7.468
		c-10.307,8.443-16.883,21.271-16.883,35.631c0,25.43,20.615,46.047,46.046,46.047c25.43,0,46.048-20.617,46.048-46.047
		c0-14.339-6.559-27.145-16.834-35.592c1.267-2.354,1.993-4.89,1.991-7.544l-0.079-138.415c0-2.213-0.487-4.347-1.381-6.357
		c9.969-8.448,16.303-21.05,16.303-35.135c0-25.431-20.618-46.05-46.048-46.05c-25.431,0-46.046,20.619-46.046,46.05
		C305.291,1364.235,311.604,1376.819,321.539,1385.264z"/>
	<g clip-path="url(#SVGID_2_)">
		<g>
			<path fill="#FFFFFF" d="M248.735,374.984h0.511c8.196,0,14.839,6.645,14.839,14.84c0,8.196-6.644,14.84-14.839,14.84h-0.511
				c-8.196,0-14.841-6.644-14.841-14.84C233.894,381.629,240.539,374.984,248.735,374.984z"/>
		</g>
		<g>
			<path fill="#FFFFFF" d="M-271.499,374.984h1.048c8.195,0,14.84,6.645,14.84,14.84c0,8.196-6.645,14.84-14.84,14.84h-1.048
				c-8.195,0-14.84-6.644-14.84-14.84C-286.339,381.629-279.694,374.984-271.499,374.984z M-197.179,374.984h1.046
				c8.196,0,14.84,6.645,14.84,14.84c0,8.196-6.644,14.84-14.84,14.84h-1.046c-8.196,0-14.84-6.644-14.84-14.84
				C-212.02,381.629-205.375,374.984-197.179,374.984z M-122.861,374.984h1.046c8.196,0,14.841,6.645,14.841,14.84
				c0,8.196-6.645,14.84-14.841,14.84h-1.046c-8.195,0-14.839-6.644-14.839-14.84C-137.7,381.629-131.056,374.984-122.861,374.984z
				 M-48.542,374.984h1.048c8.195,0,14.839,6.645,14.839,14.84c0,8.196-6.644,14.84-14.839,14.84h-1.048
				c-8.194,0-14.841-6.644-14.841-14.84C-63.383,381.629-56.737,374.984-48.542,374.984z M25.778,374.984h1.046
				c8.196,0,14.84,6.645,14.84,14.84c0,8.196-6.644,14.84-14.84,14.84h-1.046c-8.196,0-14.84-6.644-14.84-14.84
				C10.938,381.629,17.582,374.984,25.778,374.984z M100.095,374.984h1.049c8.194,0,14.839,6.645,14.839,14.84
				c0,8.196-6.645,14.84-14.839,14.84h-1.049c-8.194,0-14.839-6.644-14.839-14.84C85.256,381.629,91.901,374.984,100.095,374.984z
				 M174.417,374.984h1.046c8.195,0,14.839,6.645,14.839,14.84c0,8.196-6.644,14.84-14.839,14.84h-1.046
				c-8.196,0-14.841-6.644-14.841-14.84C159.575,381.629,166.22,374.984,174.417,374.984z"/>
		</g>
	</g>
	<g clip-path="url(#SVGID_2_)">
		<polygon fill="#FFFFFF" points="1220.788,1556.539 1524.413,1815.26 1524.413,1920.459 1517.249,1920.459 1517.249,1818.565 
			1216.142,1561.992 		"/>
	</g>
	<g clip-path="url(#SVGID_2_)">
		<polygon fill="#FFFFFF" points="1181.925,316.993 1462.054,522.914 1462.054,957.27 1680.364,1125.789 2434.325,1125.789 
			2675.45,1357.773 2675.45,1581.545 2669.309,1581.545 2669.309,1360.386 2431.85,1131.931 1678.271,1131.931 1677.441,1131.291 
			1455.913,960.288 1455.913,526.021 1178.288,321.939 		"/>
	</g>
	<g clip-path="url(#SVGID_2_)">
		<polygon fill="#FFFFFF" points="2611.691,1524.716 2617.833,1524.716 2617.833,2065.865 2081.555,2455.765 1269.574,2455.765 
			1269.574,2449.624 2079.558,2449.624 2611.691,2062.738 		"/>
	</g>
	
		<circle clip-path="url(#SVGID_2_)" fill="#2B3990" stroke="#FFFFFF" stroke-width="7" stroke-miterlimit="10" cx="2614.762" cy="1524.716" r="23.19"/>
	<path clip-path="url(#SVGID_2_)" fill="#2B3990" stroke="#FFFFFF" stroke-width="7" stroke-miterlimit="10" d="M1728.857,2452.693
		c0,12.807,10.385,23.191,23.19,23.191s23.189-10.385,23.189-23.191c0-12.805-10.384-23.189-23.189-23.189
		S1728.857,2439.889,1728.857,2452.693z"/>
	
		<circle clip-path="url(#SVGID_2_)" fill="#2B3990" stroke="#FFFFFF" stroke-width="7" stroke-miterlimit="10" cx="2441.113" cy="2195.348" r="23.19"/>
	<path clip-path="url(#SVGID_2_)" fill="#2B3990" stroke="#FFFFFF" stroke-width="7" stroke-miterlimit="10" d="M1497.641,1920.459
		c0,12.807,10.385,23.191,23.189,23.191c12.807,0,23.191-10.385,23.191-23.191s-10.385-23.189-23.191-23.189
		C1508.025,1897.27,1497.641,1907.652,1497.641,1920.459z"/>
	
		<circle clip-path="url(#SVGID_2_)" fill="#2B3990" stroke="#FFFFFF" stroke-width="7" stroke-miterlimit="10" cx="1752.048" cy="1131.903" r="23.189"/>
	<path clip-path="url(#SVGID_2_)" fill="#2B3990" stroke="#FFFFFF" stroke-width="7" stroke-miterlimit="10" d="M1435.793,592.491
		c0,12.806,10.385,23.19,23.188,23.19c12.808,0,23.192-10.384,23.192-23.19c0-12.806-10.385-23.19-23.192-23.19
		C1446.178,569.3,1435.793,579.685,1435.793,592.491z"/>
	<path clip-path="url(#SVGID_2_)" fill="#2B3990" stroke="#FFFFFF" stroke-width="7" stroke-miterlimit="10" d="M1156.916,316.289
		c0,12.807,10.384,23.19,23.19,23.19c12.805,0,23.19-10.383,23.19-23.19c0-12.805-10.385-23.19-23.19-23.19
		C1167.3,293.099,1156.916,303.484,1156.916,316.289z"/>
	<path clip-path="url(#SVGID_2_)" fill="#2B3990" stroke="#FFFFFF" stroke-width="7" stroke-miterlimit="10" d="M2649.188,1581.545
		c0,12.807,10.385,23.19,23.189,23.19c12.807,0,23.191-10.384,23.191-23.19c0-12.806-10.385-23.19-23.191-23.19
		C2659.573,1558.354,2649.188,1568.739,2649.188,1581.545z"/>
	
		<path clip-path="url(#SVGID_2_)" fill="#F1F2F2" stroke="#414042" stroke-width="4" stroke-linecap="round" stroke-linejoin="round" stroke-miterlimit="10" d="
		M2591.571,1672.987c0,12.805,10.385,23.19,23.19,23.19s23.19-10.386,23.19-23.19c0-12.807-10.385-23.19-23.19-23.19
		S2591.571,1660.181,2591.571,1672.987z"/>
</g>
<text transform="matrix(1 0 0 1 2135.668 651.2383)" fill="#808285" font-family="'Arimo-Bold'" font-size="200.9629">TUBE</text>
<text transform="matrix(1 0 0 1 2239.7793 835.5889)" fill="#808285" font-family="'Arimo-Bold'" font-size="200.9629">MAP</text>
</svg>
